<svg
  width="110"
  height="69"
  viewBox="0 0 110 69"
  fill="none"
  xmlns="http://www.w3.org/2000/svg"
>
  <style>
    @media (prefers-color-scheme: dark) {
      path {
        fill: #ffffff;
      }
    }
  </style>

  <path
    d="M52.1669 22.5C52.1669 26.404 51.2709 29.988 49.4789 33.252C47.6869 36.452 44.9349 39.044 41.2229 41.028C37.5109 43.012 32.9029 44.004 27.3989 44.004H17.2229V68.196H0.806885V0.803955H27.3989C32.7749 0.803955 37.3189 1.73196 41.0309 3.58796C44.7429 5.44395 47.5269 8.00395 49.3829 11.268C51.2389 14.532 52.1669 18.276 52.1669 22.5ZM26.1509 30.948C29.2869 30.948 31.6229 30.212 33.1589 28.74C34.6949 27.268 35.4629 25.188 35.4629 22.5C35.4629 19.812 34.6949 17.732 33.1589 16.26C31.6229 14.788 29.2869 14.052 26.1509 14.052H17.2229V30.948H26.1509Z"
    fill="black"
  />

  <path
    d="M109.193 0.803955V13.956H91.3371V68.196H74.9211V13.956H57.0651V0.803955H109.193Z"
    fill="black"
  />
</svg>
